# xmcd CD database file
# Copyright (C) 1996 Ti Kan
#
# Track frame offsets:
# 	183
# 	17088
# 	36418
# 	55938
# 	73493
# 	94510
# 	112895
# 	125508
# 	143748
# 	162290
#
# Disc length: 2361 seconds
#
# Revision: 1
# Processed by: cddbd v1.4b41PL1 Copyright (c) Steve Scherf et al.
# Submitted via: DiscPlay 3.3
#
DISCID=8909370a
DTITLE=Bellamy Brothers - Rollin' Thunder
DYEAR=1900
DGENRE=
TTITLE0=All In The Name Of Love
TTITLE1=Down To You
TTITLE2=She Don't Know That She's Perfect
TTITLE3=The Strength Of The Weaker Sex
TTITLE4=Anyway I Can
TTITLE5=Rollin' Thunder
TTITLE6=What's The Dang Deal
TTITLE7=Our Love
TTITLE8=Lonely Eyes
TTITLE9=I Make Her Laugh
EXTD=
EXTT0=
EXTT1=
EXTT2=
EXTT3=
EXTT4=
EXTT5=
EXTT6=
EXTT7=
EXTT8=
EXTT9=
PLAYORDER=
